PathFileType	4	(X/Y/Z)	Patient4_TMGait_0pt7_01_right_05.trc.trc
DataRate	CameraRate	NumFrames	NumMarkers	Units	OrigDataRate	OrigDataStartFrame	OrigNumFrames
89.171974522293	89.171974522293	4	33	mm	89.171974522293	53	       141
Frame#	Time	Sacral			L.Shoulder			Chest			R.Shoulder			Neck			R.ASIS			L.ASIS			R.Thigh.Superior			R.Thigh.Lateral			R.Thigh.Inferior			R.Patella			L.Thigh.Superior			L.Thigh.Lateral			L.Thigh.Inferior			L.Patella			L.Shank.Superior			L.Shank.Lateral			L.Shank.Inferior			R.Shank.Superior			R.Shank.Lateral			R.Shank.Inferior			R.Heel			R.Midfoot.Superior			R.Midfoot.Lateral			R.Toe			L.Heel			L.Midfoot.Lateral			L.Midfoot.Superior			L.Toe			L.Elbow			L.Wrist			R.Elbow			R.Wrist			
		X1	Y1	Z1	X2	Y2	Z2	X3	Y3	Z3	X4	Y4	Z4	X5	Y5	Z5	X6	Y6	Z6	X7	Y7	Z7	X8	Y8	Z8	X9	Y9	Z9	X10	Y10	Z10	X11	Y11	Z11	X12	Y12	Z12	X13	Y13	Z13	X14	Y14	Z14	X15	Y15	Z15	X16	Y16	Z16	X17	Y17	Z17	X18	Y18	Z18	X19	Y19	Z19	X20	Y20	Z20	X21	Y21	Z21	X22	Y22	Z22	X23	Y23	Z23	X24	Y24	Z24	X25	Y25	Z25	X26	Y26	Z26	X27	Y27	Z27	X28	Y28	Z28	X29	Y29	Z29	X30	Y30	Z30	X31	Y31	Z31	X32	Y32	Z32	X33	Y33	Z33	

53	5.823142857143	722.627183629200	1010.033718137913	562.181099930421	887.431613609800	1436.668325618353	364.554305062728	1008.321928505801	1361.894443802644	512.068589900123	947.858055616871	1439.238254154227	694.842467676734	911.027947556707	1496.297722549221	519.927807327585	960.992736705669	946.052270432126	654.931832635732	918.543538867842	964.957863670769	383.366639219805	988.443367430558	740.256399801697	624.708115859337	903.502154617390	634.904370967007	688.197173122722	971.009856587666	579.573794162722	603.296800769628	965.207680758826	492.891914814224	607.270933779541	1014.716127458479	798.173769714078	409.792849668047	978.490071964729	668.678154954279	332.425640670456	1089.448166483127	613.976338189939	387.071979561353	1110.678495495118	526.896200461624	378.047870710641	1054.614226873542	452.803591570663	371.393350291472	920.870626183026	388.184741933839	326.288063387171	934.048462287913	257.698499253559	377.870271684478	937.540102774275	405.255201424723	614.564536845336	867.310576466600	301.300481691088	675.930418174852	905.642724262270	207.253581625455	609.963040972043	768.966669366621	43.445230120287	579.335310180777	940.629421631111	96.896856852812	612.941827740059	852.713200765954	36.782783944699	653.500667702426	1061.277803211831	42.042448009951	640.711675588745	760.507364330345	159.404285516864	420.412785082260	821.500340424002	125.505968495866	337.242175859291	924.213997094007	151.618546397427	355.372755547820	1018.681099493127	54.700002999591	322.810144431300	823.232853895938	1085.143130450833	266.057403143620	889.062687798747	833.220866906875	258.312228694634	1008.547117775813	1102.383006464587	828.009093308244	1234.441368293911	992.549840779064	764.442288724751	
54	5.834357142857	721.734954209567	1010.327817044415	562.511597941681	887.321430544015	1436.050877980338	364.343894235329	1008.387341751229	1361.378257594838	511.790474411757	948.451036655627	1439.360351918154	694.500043660348	911.320366732450	1496.122434586973	519.589430182090	959.832818233785	945.729050354543	655.586298259955	917.727991976023	965.057102979331	383.779230413122	985.876578178747	739.556787929223	624.959486757048	900.071763506444	634.692785406412	688.359975621970	967.171256753027	578.863618635689	603.593487349041	960.558504937463	492.189363982798	607.428151056044	1014.382611934432	799.966947907291	410.369699661765	979.282178632860	670.055733092380	332.749112952983	1090.565592254078	616.504977984523	387.592585588446	1113.486293172469	531.004637776635	378.679153649333	1061.256606900902	455.702042721202	371.118582533497	932.146396290136	383.296557774513	324.975557426448	953.624936461797	253.288428279950	375.583241126842	932.295015398058	404.713779155067	614.559604129540	861.372411641398	301.238058971612	675.939451438060	898.899187328218	206.929225823180	609.879088544854	761.111782667028	43.541992120255	579.355791241098	932.826837363063	96.852149739472	612.964972933186	844.840854853896	36.828149210093	653.520936112570	1053.403632576427	41.812369903970	640.833676324679	786.953435333909	143.471967418560	417.213156293246	849.956692448253	114.642488440769	333.631062714731	950.754335067317	147.062162009835	352.070777607886	1051.302007749060	56.834811773331	318.409230948437	817.088424569397	1085.008913456559	268.155217384390	866.841696159418	829.890683120134	258.817181360449	1018.942665503328	1104.720673811348	826.123643271523	1250.561955487382	1011.888964287025	758.112089774029	
55	5.845571428571	720.949405205025	1010.609525497921	562.707254859698	887.312006313686	1435.457326308317	364.051839394952	1008.490198392516	1360.896776980706	511.475677229359	948.968135981067	1439.473418854217	694.079461185279	911.572634150618	1495.934891603019	519.196197648913	958.742652488560	945.360744425509	656.136847128063	917.067194624041	965.086930108871	384.079891379838	983.320165306039	738.801438453355	625.171094055721	896.596169287112	634.458861840215	688.479588620551	963.260499870606	578.111156902995	603.850340826461	955.828095209512	491.487154750291	607.557627191952	1013.756648485815	801.104221654714	410.792541165341	979.429416501415	670.920458477738	332.936598961113	1090.736395752693	618.161859926856	388.257180378196	1115.223117293807	534.479364504456	379.430904965231	1066.950689494542	458.297479314013	370.940195405105	943.299961646560	378.159742757848	323.414716780372	973.091097099954	249.210471541125	373.334975093524	926.986641806181	404.167424024471	614.535038571581	855.364332436533	301.167413325471	675.917170860792	892.115032577353	206.605728936611	609.789329493209	753.252144497380	43.640631297098	579.370303932128	925.017188574289	96.817780580202	612.989240994412	836.960711814583	36.863421205899	653.515363624852	1045.516352199447	41.603856107367	640.948513498937	814.122639899551	128.177424940782	413.609003914282	879.140648797060	104.424830738796	329.990357809995	977.485906586351	143.146946102195	349.040178025819	1083.850290113842	59.997830333460	315.004891603338	811.031321951395	1085.184644673973	269.806966215675	845.507390598507	827.996439349752	259.563565688661	1029.032977894314	1107.304626865564	823.853718734986	1265.095675835719	1031.844050608707	751.551868538459	
56	5.856785714286	720.282312948439	1010.865186121977	562.772764237726	887.403439647950	1434.892485970077	363.678786617184	1008.634781347176	1360.439388739468	511.113586021857	949.432516623930	1439.566083230647	693.578086315953	911.793714266029	1495.730304897136	518.745114408403	957.739252633304	944.949171262553	656.562299382617	916.559000413678	965.035640937000	384.257532053088	980.770345086812	737.992994059881	625.334657321302	893.076605668965	634.205268158183	688.558125363575	959.257590479127	577.322048838172	604.058698166865	950.999713555338	490.787481702294	607.659622331790	1012.864473076666	801.583298153192	411.092337135590	979.038459863283	671.309888677077	332.929446825512	1090.050921222053	618.979665438661	389.051580473697	1116.004453546390	537.336098920444	380.270253507638	1071.754417120955	460.608821674083	370.866736257711	954.343861913135	372.961318631292	321.613161736414	992.249697742035	245.666593940255	371.224532629706	921.599146880496	403.619521569327	614.491837675656	849.277057265705	301.090208283831	675.868141854738	885.281274753678	206.286645133803	609.694689400432	745.385641456140	43.738775823274	579.380303937856	917.196588655578	96.791968749447	613.014506093595	829.072785852349	36.889730798039	653.490274900495	1037.618375715784	41.418441529071	641.056243254278	841.659858315189	113.946475162601	409.694945262439	908.738349114267	95.183210957302	326.459280730721	1004.107865510705	140.093428553618	346.430515855626	1115.942637820766	64.299530827118	312.846350037118	805.043149421196	1085.692305210553	270.990855080680	825.299787488958	827.390738863148	260.518048747884	1038.806818401821	1110.112029260702	821.241732296528	1277.995753434831	1052.209671921401	744.840862941091	
